<svg version="1.1" id="Calque_1" xmlns="http://www.w3.org/2000/svg" xmlns:xlink="http://www.w3.org/1999/xlink" viewBox="0 0 159.355 159.354">
<g>
	<rect fill="#0A5898" width="159.355" height="159.354"/>
	<path fill="#FFFFFF" d="M79.84,8.147c-1.955,3.584-6.192,8.473-13.361,17.597c-8.147,10.428-6.844,24.115-2.933,32.262
		c4.563,9.45,7.169,17.271,9.125,24.767c2.933,10.754,0.978,25.093,1.304,23.789h-7.169c0-17.598-5.54-34.217-18.901-41.387
		c-18.901-10.428-37.476,7.821-31.61,26.396c3.259,9.776,8.799,13.361,10.428,13.361c0,0-2.607-10.755,5.214-16.62
		c7.496-5.214,16.62-1.955,20.856,4.236c3.911,5.866,4.563,14.013,4.563,14.013H43.668v10.103h27.374
		c0,0-0.651,14.013-15.642,12.709c0,0,1.956,11.08,15.642,5.214c0,0-0.651,11.731,8.799,17.598
		c9.45-5.866,8.799-17.598,8.799-17.598c13.687,5.866,15.643-5.214,15.643-5.214c-14.991,1.304-15.643-12.709-15.643-12.709h27.374
		v-10.103h-13.688c0,0,0.652-8.146,4.563-14.013c4.236-6.191,13.361-9.45,20.856-4.236c7.821,5.54,5.214,16.62,5.214,16.62
		c1.63,0,7.169-3.259,10.103-13.361c5.865-18.901-12.71-36.824-31.61-26.396c-13.361,7.496-18.901,23.789-18.901,41.387H85.38
		c0,1.304-1.63-13.035,1.304-23.789c1.955-7.495,4.563-15.316,9.124-24.767c3.911-8.147,5.54-21.834-2.933-32.262
		C86.032,16.62,81.795,11.731,79.84,8.147"/>
</g>
</svg>
